<?xml version="1.0" encoding="UTF-8"?>
<svg xmlns="http://www.w3.org/2000/svg" xmlns:xlink="http://www.w3.org/1999/xlink" width="50pt" height="48pt" viewBox="0 0 50 48" version="1.1">
<g id="surface1">
<path style=" stroke:none;fill-rule:nonzero;fill:rgb(0%,0%,0%);fill-opacity:1;" d="M 35.203125 2.464844 C 32.09375 3.816406 29.046875 5.132812 28.441406 5.394531 C 27.839844 5.65625 26.722656 6.140625 25.964844 6.46875 C 25.207031 6.800781 23.722656 7.445312 22.664062 7.898438 C 21.613281 8.351562 19.433594 9.300781 17.824219 9.992188 C 16.214844 10.691406 14.882812 11.265625 14.851562 11.265625 C 14.828125 11.265625 14.417969 11.011719 13.941406 10.703125 C 13.464844 10.390625 12.550781 9.820312 11.90625 9.425781 C 11.265625 9.027344 10.660156 8.664062 10.574219 8.601562 C 10.230469 8.386719 7.765625 6.941406 7.273438 6.671875 C 6.242188 6.097656 4.882812 5.585938 3.796875 5.359375 C 3.0625 5.207031 2.164062 5.183594 1.695312 5.3125 C 0.523438 5.625 -0.0742188 6.5 0.015625 7.777344 C 0.101562 9.015625 0.921875 10.457031 1.964844 11.234375 C 2.316406 11.492188 8.519531 15.304688 10.714844 16.601562 L 11.527344 17.085938 L 13.40625 31.164062 C 14.734375 41.140625 15.300781 45.257812 15.347656 45.300781 C 15.453125 45.394531 19.867188 48 19.925781 48 C 19.953125 48 19.976562 47.984375 19.976562 47.960938 C 19.972656 47.90625 22.375 22.617188 22.386719 22.609375 C 22.394531 22.589844 37.34375 30.277344 37.382812 30.320312 C 37.402344 30.335938 37.597656 32.195312 37.816406 34.449219 C 38.039062 36.703125 38.234375 38.5625 38.253906 38.582031 C 38.308594 38.632812 41.21875 40.359375 41.257812 40.359375 C 41.269531 40.359375 41.800781 38.371094 42.429688 35.9375 L 43.578125 31.523438 L 44.632812 30.445312 C 48.574219 26.417969 50.007812 24.929688 50.007812 24.859375 C 50.007812 24.796875 49.59375 24.546875 48.492188 23.960938 L 46.972656 23.152344 L 43.261719 24.914062 C 41.222656 25.890625 39.535156 26.6875 39.507812 26.6875 C 39.484375 26.6875 37.871094 25.695312 35.929688 24.488281 C 33.988281 23.277344 30.769531 21.277344 28.785156 20.039062 C 26.796875 18.800781 25.167969 17.78125 25.171875 17.765625 C 25.171875 17.75 28.4375 15.328125 32.433594 12.375 C 36.425781 9.421875 41.03125 6.015625 42.667969 4.804688 C 44.859375 3.183594 45.636719 2.585938 45.59375 2.550781 C 45.535156 2.492188 41.046875 0.0664062 40.933594 0.0273438 C 40.894531 0.0195312 38.320312 1.109375 35.203125 2.464844 Z M 35.203125 2.464844 "/>
</g>
</svg>
